<?xml version="1.0" encoding="utf-8"?>
<!-- Generator: Adobe Illustrator 16.0.0, SVG Export Plug-In . SVG Version: 6.00 Build 0)  -->
<!DOCTYPE svg PUBLIC "-//W3C//DTD SVG 1.1 Tiny//EN" "http://www.w3.org/Graphics/SVG/1.1/DTD/svg11-tiny.dtd">
<svg version="1.1" baseProfile="tiny" xmlns="http://www.w3.org/2000/svg" xmlns:xlink="http://www.w3.org/1999/xlink" x="0px"
	 y="0px" width="250.556px" height="39.705px" viewBox="0 0 250.556 39.705" xml:space="preserve">
<g id="Layer_1">
</g>
<g id="Layer_2">
	<g>
		<path fill="#FFFBF5" d="M174.778,28.249l2.235,1.291c-2.53,2.615-6.073,4.247-10,4.247c-5.77,0-9.852-2.647-11.966-7.647
			c-0.632,2.366-1.651,4.574-2.988,6.551c3.625,4.781,8.492,7.014,14.955,7.014c6.126,0,11.598-2.779,15.237-7.141l1.851,1.068
			v-3.685v-3.729v-3.351L174.778,28.249z"/>
		<path fill="#FFFBF5" d="M182.129,6.993c-3.64-4.277-9.059-6.991-15.114-6.991c-7.133,0-13.383,3.764-16.884,9.411v0.029
			c-1.873,3.026-2.958,6.592-2.962,10.412c0,0,0.001,0.233,0.003,0.351c-0.187,7.533-6.346,13.583-13.924,13.583
			c-7.695,0-14.009-6.126-14.009-13.822l0.014-1.187v-5.746h12.609h10.617c-0.022-3.272-2.679-5.918-5.956-5.918h-17.271V5.874
			V5.781V0c-3.084,0.023-5.601,2.412-5.834,5.443L113.396,5.9v6.916c0,0,0,6.677,0,7.038c0,10.963,8.889,19.852,19.852,19.852
			c7.133,0,13.383-3.764,16.883-9.411v-0.029c1.875-3.026,2.959-6.592,2.963-10.411h0.006c0-0.12-0.007-0.238-0.009-0.359
			c0.19-7.528,6.349-13.575,13.923-13.575c3.856,0,7.341,1.574,9.862,4.106l-2.098,1.211l9.324,5.382v-3.132V9.76V5.854
			L182.129,6.993z"/>
	</g>
	<g>
		<path fill="#FFFBF5" d="M13.782,20.249h0.064L15.92,9.636h3.232L15.5,25.276h-2.91L9.711,14.975H9.647L6.778,25.276H3.867
			L0.215,9.636h3.233l2.084,10.603h0.064L8.411,9.636h2.535L13.782,20.249z"/>
		<path fill="#FFFBF5" d="M40.532,25.276h-3.137v-6.499h-6.37v6.499h-3.137V9.636h3.137v6.725h6.37V9.636h3.137V25.276z"/>
		<path fill="#FFFBF5" d="M59.418,18.401h-5.801v4.469h6.896v2.406H50.481V9.636h10.012v2.417h-6.875v3.932h5.801V18.401z"/>
		<path fill="#FFFBF5" d="M72.922,19.024v6.252h-3.137V9.636H75.2c1.783,0,3.178,0.407,4.184,1.219c1.007,0.813,1.51,1.946,1.51,3.4
			c0,0.802-0.213,1.495-0.639,2.079c-0.427,0.584-1.048,1.055-1.864,1.413c0.924,0.272,1.588,0.727,1.993,1.364
			c0.404,0.638,0.606,1.425,0.606,2.363v1.149c0,0.437,0.06,0.894,0.177,1.37c0.119,0.477,0.321,0.829,0.607,1.058v0.226h-3.233
			c-0.286-0.229-0.471-0.608-0.554-1.139c-0.082-0.53-0.123-1.042-0.123-1.536v-1.106c0-0.78-0.213-1.387-0.639-1.821
			c-0.427-0.433-1.03-0.65-1.811-0.65H72.922z M72.922,16.607h2.224c0.881,0,1.536-0.186,1.966-0.559
			c0.43-0.372,0.645-0.924,0.645-1.654c0-0.716-0.217-1.285-0.65-1.708c-0.433-0.422-1.068-0.634-1.906-0.634h-2.277V16.607z"/>
		<path fill="#FFFBF5" d="M99.812,18.401h-5.801v4.469h6.896v2.406H90.875V9.636h10.012v2.417h-6.875v3.932h5.801V18.401z"/>
	</g>
	<g>
		<path fill="#FFFBF5" d="M205.396,18.401h-5.801v4.469h6.896v2.406h-10.033V9.636h10.012v2.417h-6.875v3.932h5.801V18.401z"/>
		<path fill="#FFFBF5" d="M224.547,21.903h-5.07l-1.053,3.373h-3.276l5.274-15.641h3.212l5.253,15.641h-3.276L224.547,21.903z
			 M220.25,19.443h3.534l-1.729-5.511h-0.064L220.25,19.443z"/>
		<path fill="#FFFBF5" d="M248.038,12.053h-4.469v13.224h-3.137V12.053h-4.404V9.636h12.01V12.053z"/>
	</g>
</g>
</svg>
