<?xml version="1.0" encoding="utf-8"?>
<!-- Generator: Adobe Illustrator 16.0.0, SVG Export Plug-In . SVG Version: 6.00 Build 0)  -->
<!DOCTYPE svg PUBLIC "-//W3C//DTD SVG 1.1 Tiny//EN" "http://www.w3.org/Graphics/SVG/1.1/DTD/svg11-tiny.dtd">
<svg version="1.1" baseProfile="tiny" xmlns="http://www.w3.org/2000/svg" xmlns:xlink="http://www.w3.org/1999/xlink" x="0px"
	 y="0px" width="101.669px" height="102.758px" viewBox="0 0 101.669 102.758" xml:space="preserve">
<g id="Layer_1">
	<g>
		<path fill="#FFBE57" d="M-148.505,180.916h4.913l-6.193,18.315h-4.912l-3.476-12.463l-3.526,12.463h-4.913l-6.166-18.315h5.146
			l3.606,13.378l3.606-13.378h4.676l3.658,13.378L-148.505,180.916z"/>
		<path fill="#FFBE57" d="M-136.122,180.916h4.781v7.473h7.396v-7.473h4.781v18.315h-4.781v-7.029h-7.396v7.029h-4.781V180.916z"/>
		<path fill="#FFBE57" d="M-109.864,180.916h14.449v3.814h-9.665v3.422h8.726v3.79l-8.726,0.025v3.45h9.928v3.813h-14.712V180.916z"
			/>
		<path fill="#FFBE57" d="M-75.478,199.231l-2.665-5.068h-0.104h-3.448v5.068h-4.782v-18.315h8.23c2.421,0,4.298,0.561,5.63,1.685
			s1.999,2.705,1.999,4.742c0,1.377-0.279,2.565-0.836,3.567c-0.558,1.002-1.368,1.782-2.43,2.338l3.814,5.983H-75.478z
			 M-81.696,190.348h3.475c0.975,0,1.728-0.245,2.26-0.732c0.53-0.488,0.796-1.193,0.796-2.116c0-0.889-0.266-1.572-0.796-2.051
			c-0.532-0.479-1.285-0.719-2.26-0.719h-3.475V190.348z"/>
		<path fill="#FFBE57" d="M-61.814,180.916h14.45v3.814h-9.668v3.422h8.727v3.79l-8.727,0.025v3.45h9.928v3.813h-14.71V180.916z"/>
	</g>
	<g>
		<path fill="#FFBE57" d="M-30.644,180.916h14.449v3.814h-9.667v3.422h8.726v3.79l-8.726,0.025v3.45h9.929v3.813h-14.711V180.916z"
			/>
		<path fill="#FFBE57" d="M14.981,199.23l-1.254-3.239H5.81l-1.279,3.239h-4.913l7.864-18.314h4.912l7.682,18.314H14.981z
			 M7.247,192.333h5.07l-2.51-6.532L7.247,192.333z"/>
		<path fill="#FFBE57" d="M35.13,180.916h15.704v3.945h-5.487v14.37h-4.781v-14.37H35.13V180.916z"/>
	</g>
</g>
<g id="Layer_2">
	<g>
		<path fill="#FFFBF5" d="M88.263,63.57l3.214,1.856c-3.639,3.76-8.732,6.106-14.38,6.106c-8.296,0-14.165-3.807-17.205-10.995
			c-0.909,3.402-2.375,6.577-4.298,9.419c5.213,6.875,12.212,10.086,21.505,10.086c8.809,0,16.677-3.996,21.91-10.268l2.66,1.535
			v-5.299V60.65v-4.818L88.263,63.57z"/>
		<path fill="#FFFBF5" d="M98.833,33.005c-5.233-6.149-13.026-10.053-21.733-10.053c-10.256,0-19.244,5.412-24.277,13.532v0.042
			c-2.693,4.352-4.254,9.479-4.26,14.971c0,0,0.002,0.335,0.005,0.504c-0.268,10.832-9.125,19.531-20.021,19.531
			c-11.064,0-20.144-8.809-20.144-19.874l0.02-1.706v-8.262h18.131H41.82c-0.032-4.705-3.853-8.51-8.564-8.51H8.421v-1.785v-0.133
			v-8.313c-4.435,0.033-8.053,3.469-8.388,7.826L0,31.434v9.944c0,0,0,9.601,0,10.119c0,15.765,12.782,28.545,28.545,28.545
			c10.257,0,19.243-5.412,24.276-13.532v-0.042c2.695-4.352,4.255-9.479,4.26-14.971h0.009c0-0.172-0.01-0.343-0.013-0.516
			c0.274-10.825,9.129-19.52,20.02-19.52c5.546,0,10.556,2.263,14.182,5.904l-3.016,1.741l13.406,7.739v-4.504v-5.358v-5.617
			L98.833,33.005z"/>
	</g>
	<g>
		<path fill="#FFFBF5" d="M13.782,11.73h0.064L15.92,1.117h3.232L15.5,16.758h-2.91L9.711,6.456H9.647L6.778,16.758H3.867
			L0.215,1.117h3.233L5.532,11.72h0.064L8.411,1.117h2.535L13.782,11.73z"/>
		<path fill="#FFFBF5" d="M40.532,16.758h-3.137v-6.499h-6.37v6.499h-3.137V1.117h3.137v6.725h6.37V1.117h3.137V16.758z"/>
		<path fill="#FFFBF5" d="M59.418,9.883h-5.801v4.469h6.896v2.406H50.481V1.117h10.012v2.417h-6.875v3.932h5.801V9.883z"/>
		<path fill="#FFFBF5" d="M72.922,10.506v6.252h-3.137V1.117H75.2c1.783,0,3.178,0.407,4.184,1.219c1.007,0.813,1.51,1.946,1.51,3.4
			c0,0.802-0.213,1.495-0.639,2.079c-0.427,0.584-1.048,1.055-1.864,1.413c0.924,0.272,1.588,0.727,1.993,1.364
			c0.404,0.638,0.606,1.425,0.606,2.363v1.149c0,0.437,0.06,0.894,0.177,1.37c0.119,0.477,0.321,0.829,0.607,1.058v0.226h-3.233
			c-0.286-0.229-0.471-0.608-0.554-1.139c-0.082-0.53-0.123-1.042-0.123-1.536v-1.106c0-0.78-0.213-1.387-0.639-1.821
			c-0.427-0.433-1.03-0.65-1.811-0.65H72.922z M72.922,8.089h2.224c0.881,0,1.536-0.186,1.966-0.559
			c0.43-0.372,0.645-0.924,0.645-1.654c0-0.716-0.217-1.285-0.65-1.708c-0.433-0.422-1.068-0.634-1.906-0.634h-2.277V8.089z"/>
		<path fill="#FFFBF5" d="M99.812,9.883h-5.801v4.469h6.896v2.406H90.875V1.117h10.012v2.417h-6.875v3.932h5.801V9.883z"/>
	</g>
	<g>
		<path fill="#FFFBF5" d="M34.562,95.883h-5.801v4.469h6.896v2.406H25.625V87.117h10.012v2.417h-6.875v3.932h5.801V95.883z"/>
		<path fill="#FFFBF5" d="M53.713,99.385h-5.07l-1.053,3.373h-3.276l5.274-15.641H52.8l5.253,15.641h-3.276L53.713,99.385z
			 M49.417,96.925h3.534l-1.729-5.511h-0.064L49.417,96.925z"/>
		<path fill="#FFFBF5" d="M77.205,89.534h-4.469v13.224h-3.137V89.534h-4.404v-2.417h12.01V89.534z"/>
	</g>
</g>
</svg>
